<!DOCTYPE svg PUBLIC "-//W3C//DTD SVG 20010904//EN" "http://www.w3.org/TR/2001/REC-SVG-20010904/DTD/svg10.dtd">
<svg xmlns="http://www.w3.org/2000/svg" version="1.0" width="600px" height="600px" viewBox="-50 0 900 800" preserveAspectRatio="xMidYMid meet">
	<g transform="translate(0.000000,727.000000) scale(0.100000,-0.100000)" fill="#000000" stroke="none">
	
	<path d="M6317 7183 c-58 -192 -71 -281 -71 -513 -1 -170 3 -236 18 -315 24 -130 67 -270 112 -364 39 -82 132 -231 144 -231 4 0 15 19 24 43 46 110 76 189 80 210 2 12 12 60 23 107 13 64 18 126 18 250 -1 195 -23 326 -86 504 -57 165 -188 396 -223 396 -7 0 -24 -39 -39 -87z">
		<animate dur="0.5s" values="transparent; transparent; #000" keyTimes="0; 0.8; 1" attributeName="fill" repeatCount="1"/>
	</path>
	
	<path d="M2200 7189 c-36 -34 -88 -78 -116 -99 -270 -203 -459 -509 -568 -920 -51 -195 -67 -273 -57 -283 20 -20 204 93 338 210 256 222 453 630 469 973 3 52 6 114 8 138 2 23 1 42 -3 42 -3 -1 -35 -28 -71 -61z">
		<animate dur="0.6s" values="transparent; transparent; #000" keyTimes="0; 0.8; 1" attributeName="fill" repeatCount="1"/>
	</path>
	
	<path d="M5410 7142 c0 -80 69 -300 135 -434 149 -300 357 -520 609 -644 115 -57 126 -57 119 -1 -11 94 -68 273 -132 411 -134 290 -378 550 -638 680 -75 38 -93 35 -93 -12z">
		<animate dur="0.7s" values="transparent; transparent; #000" keyTimes="0; 0.8; 1" attributeName="fill" repeatCount="1"/>
	</path>
	
	<path d="M1284 7032 c-22 -15 -98 -138 -136 -221 -60 -127 -86 -225 -113 -406 -38 -262 2 -578 107 -832 16 -40 34 -73 39 -73 16 0 157 297 188 395 16 50 39 141 51 203 19 100 22 135 17 300 -5 205 -18 286 -85 515 -35 121 -44 136 -68 119z">
		<animate dur="0.8s" values="transparent; transparent; #000" keyTimes="0; 0.8; 1" attributeName="fill" repeatCount="1"/>
	</path>
		
	<path d="M6862 6548 c-40 -52 -88 -193 -118 -353 -28 -150 -26 -448 4 -607 35 -179 116 -416 197 -572 22 -44 45 -81 51 -83 14 -5 80 170 110 290 112 451 42 956 -178 1280 -40 59 -49 65 -66 45z">
		<animate dur="0.9s" values="transparent; transparent; #000" keyTimes="0; 0.8; 1" attributeName="fill" repeatCount="1"/>
	</path>
	
	<path d="M678 6248 c-115 -224 -141 -595 -63 -901 13 -54 32 -120 40 -145 22 -66 127 -279 166 -338 56 -84 103 -144 114 -144 12 0 58 144 82 260 27 127 24 397 -5 550 -27 142 -50 223 -103 365 -55 147 -178 385 -198 385 -9 0 -24 -15 -33 -32z">
		<animate dur="1.0s" values="transparent; transparent; #000" keyTimes="0; 0.8; 1" attributeName="fill" repeatCount="1"/>
	</path>
	
	<path d="M5534 6195 c-3 -8 13 -51 36 -97 175 -343 496 -614 881 -742 104 -35 284 -74 294 -65 8 9 -86 179 -147 264 -130 184 -269 315 -474 447 -117 75 -292 145 -461 183 -128 29 -122 29 -129 10z">
		<animate dur="1.1s" values="transparent; transparent; #000" keyTimes="0; 0.8; 1" attributeName="fill" repeatCount="1"/>
	</path>
	
	<path d="M2155 6096 c-374 -59 -730 -358 -952 -800 -54 -107 -119 -283 -109 -293 3 -3 45 15 93 40 49 25 126 59 172 76 102 37 207 102 320 196 212 177 388 408 536 704 35 69 42 92 28 90 -5 -1 -44 -7 -88 -13z">
		<animate dur="1.2s" values="transparent; transparent; #000" keyTimes="0; 0.8; 1" attributeName="fill" repeatCount="1"/>
	</path>
	
	<path d="M7584 5812 c-43 -38 -101 -95 -129 -128 -27 -32 -53 -61 -56 -64 -4 -3 -32 -44 -62 -92 -65 -103 -163 -335 -181 -428 -3 -14 -14 -70 -26 -125 -38 -171 -31 -657 9 -655 8 1 216 203 258 251 99 115 229 364 258 495 50 232 50 234 49 479 -1 162 -18 335 -34 335 -4 0 -43 -31 -86 -68z">
		<animate dur="1.3s" values="transparent; transparent; #000" keyTimes="0; 0.8; 1" attributeName="fill" repeatCount="1"/>
	</path>
	<path d="M144 5338 c8 -113 39 -308 61 -380 9 -29 18 -63 21 -76 15 -75 133 -312 212 -427 72 -104 214 -254 322 -339 76 -61 80 -56 80 92 0 71 -7 171 -16 223 -41 248 -180 539 -338 707 -23 24 -42 47 -44 52 -9 25 -273 240 -295 240 -6 0 -8 -33 -3 -92z">
		<animate dur="1.4s" values="transparent; transparent; #000" keyTimes="0; 0.8; 1" attributeName="fill" repeatCount="1"/>
	</path>
	<path d="M6275 5273 c4 -32 18 -110 31 -173 85 -404 278 -747 535 -954 75 -60 176 -126 193 -126 12 0 6 225 -8 310 -35 212 -105 382 -233 563 -75 106 -160 196 -258 272 -77 60 -241 165 -258 165 -5 0 -5 -26 -2 -57z">
		<animate dur="1.5s" values="transparent; transparent; #000" keyTimes="0; 0.8; 1" attributeName="fill" repeatCount="1"/>
	</path>
	<path d="M1466 5095 c-94 -56 -149 -100 -217 -172 -190 -202 -293 -459 -318 -798 -11 -148 -5 -345 12 -345 9 0 184 174 266 266 155 173 278 467 320 771 30 209 31 313 3 313 -5 0 -34 -16 -66 -35z m-124 -472 c10 -9 18 -20">
		<animate dur="1.6s" values="transparent; transparent; #000" keyTimes="0; 0.8; 1" attributeName="fill" repeatCount="1"/>
	</path>
	<path d="M7630 4657 c-221 -164 -389 -356 -494 -564 -39 -78 -94 -214 -100 -246 -2 -12 -11 -47 -20 -77 -17 -61 -21 -82 -41 -225 -18 -124 -20 -245 -3 -245 19 0 157 109 247 194 270 258 446 587 495 923 16 115 22 303 9 303 -5 0 -46 -29 -93 -63z">
		<animate dur="1.7s" values="transparent; transparent; #000" keyTimes="0; 0.8; 1" attributeName="fill" repeatCount="1"/>
	</path>
	<path d="M110 4441 c0 -5 6 -27 14 -49 8 -22 17 -55 20 -74 12 -76 55 -256 71 -298 47 -124 149 -305 215 -383 10 -12 42 -51 71 -86 30 -35 94 -100 144 -144 94 -82 288 -217 313 -217 11 0 13 13 8 69 -7 77 -55 280 -84 356 -96 251 -191 404 -352 566 -109 110 -198 175 -322 234 -74 36 -98 42 -98 26z">
		<animate dur="1.8s" values="transparent; transparent; #000" keyTimes="0; 0.8; 1" attributeName="fill" repeatCount="1"/>
	</path>
	<path d="M6716 4086 c-39 -67 -144 -301 -177 -396 -50 -142 -88 -283 -111 -407 -30 -159 -32 -474 -5 -603 22 -103 58 -220 68 -220 22 0 169 244 231 385 49 111 71 170 109 305 38 133 44 200 43 435 -1 172 -3 200 -28 300 -27 107 -81 245 -97 245 -4 0 -19 -20 -33 -44z">
		<animate dur="1.9s" values="transparent; transparent; #000" keyTimes="0; 0.8; 1" attributeName="fill" repeatCount="1"/>
	</path>
	<path d="M1164 3813 c-60 -163 -78 -265 -77 -453 0 -138 8 -224 29 -305 9 -33 18 -68 19 -78 10 -50 62 -184 107 -272 70 -141 207 -339 223 -324 11 12 53 204 65 304 17 132 15 365 -3 490 -28 189 -81 341 -176 503 -48 83 -136 192 -154 192 -7 0 -22 -26 -33 -57z m226 -513">
		<animate dur="2.0s" values="transparent; transparent; #000" keyTimes="0; 0.8; 1" attributeName="fill" repeatCount="1"/>
	</path>
	<path d="M7895 3759 c-49 -16 -124 -38 -165 -50 -101 -27 -257 -104 -358 -176 -160 -115 -363 -335 -495 -540 -52 -79 -147 -251 -147 -265 0 -4 33 -5 73 -2 398 32 816 336 1080 786 85 144 139 281 110 277 -5 0 -48 -14 -98 -30z">
		<animate dur="2.1s" values="transparent; transparent; #000" keyTimes="0; 0.8; 1" attributeName="fill" repeatCount="1"/>
	</path>
	<path d="M0 3500 c0 -11 41 -78 192 -308 70 -109 241 -277 358 -354 156 -102 344 -185 547 -242 107 -30 113 -31 113 -11 0 34 -156 310 -204 361 -6 6 -37 43 -70 82 -167 203 -435 376 -696 449 -104 29 -240 42 -240 23z m684 -276 c11 -10">
		<animate dur="2.2s" values="transparent; transparent; #000" keyTimes="0; 0.8; 1" attributeName="fill" repeatCount="1"/>
	</path>
	<path d="M7360 2821 c-434 -144 -792 -394 -1014 -710 -63 -89 -156 -285 -156 -327 0 -10 16 -8 73 7 482 131 822 361 1042 704 136 213 133 208 161 281 25 68 29 84 17 83 -5 0 -60 -17 -123 -38z">
		<animate dur="2.3s" values="transparent; transparent; #000" keyTimes="0; 0.8; 1" attributeName="fill" repeatCount="1"/>
	</path>
	<path d="M6278 2743 c-26 -21 -74 -55 -106 -75 -94 -61 -195 -151 -261 -235 -35 -43 -68 -85 -75 -93 -59 -74 -163 -284 -211 -425 -64 -190 -126 -535 -96 -535 32 0 176 89 277 171 265 216 447 518 514 855 11 54 23 161 27 237 7 158 6 160 -69 100z">
		<animate dur="2.4s" values="transparent; transparent; #000" keyTimes="0; 0.8; 1" attributeName="fill" repeatCount="1"/>
	</path>
	<path d="M1650 2709 c0 -43 62 -322 90 -409 90 -270 170 -434 296 -606 56 -76 180 -204 258 -266 69 -55 183 -121 196 -113 11 7 9 33 -15 200 -76 522 -366 981 -757 1199 -60 33 -68 33 -68 -5z">
		<animate dur="2.5s" values="transparent; transparent; #000" keyTimes="0; 0.8; 1" attributeName="fill" repeatCount="1"/>
	</path>
	<path d="M641 2543 c28 -75 110 -213 178 -300 178 -228 452 -405 811 -523 106 -35 300 -84 306 -77 7 6 -66 151 -113 224 -156 246 -403 469 -643 582 -164 76 -341 121 -481 121 l-69 0 11 -27z m735 -360 c28 -67 -1">
		<animate dur="2.6s" values="transparent; transparent; #000" keyTimes="0; 0.8; 1" attributeName="fill" repeatCount="1"/>
	</path>
	<path d="M5385 1848 c-473 -118 -881 -392 -1110 -747 -52 -80 -139 -260 -131 -269 3 -3 36 3 73 13 523 140 939 423 1150 783 24 40 103 215 103 227 0 8 -40 4 -85 -7z">
		<animate dur="2.7s" values="transparent; transparent; #000" keyTimes="0; 0.8; 1" attributeName="fill" repeatCount="1"/>
	</path>
	<path d="M2535 1790 c-7 -11 30 -86 82 -168 36 -56 140 -202 152 -212 3 -3 37 -40 74 -82 162 -184 393 -348 597 -425 121 -46 312 -78 333 -56 16 15 -152 299 -234 398 -245 292 -532 474 -851 539 -88 18 -144 20 -153 6z">
		<animate dur="2.8s" values="transparent; transparent; #000" keyTimes="0; 0.8; 1" attributeName="fill" repeatCount="1"/>
	</path>
	<path d="M6685 1794 c-292 -32 -534 -116 -730 -252 -76 -53 -225 -187 -225 -202 0 -12 145 -31 306 -40 276 -15 518 12 724 80 113 38 269 116 349 175 94 69 201 165 201 180 0 8 -14 16 -32 20 -169 28 -246 36 -388 39 -91 2 -183 2 -205 0z">
		<animate dur="2.9s" values="transparent; transparent; #000" keyTimes="0; 0.8; 1" attributeName="fill" repeatCount="1"/>
	</path>
	<path d="M1070 1645 c-47 -7 -116 -22 -154 -34 -80 -25 -216 -83 -216 -93 0 -7 0 -7 185 -101 222 -112 392 -174 595 -219 92 -20 132 -23 325 -23 144 0 241 5 280 13 107 24 193 52 217 71 27 23 31 19 -87 98 -344 232 -782 342 -1145 288z">
		<animate dur="3.0s" values="transparent; transparent; #000" keyTimes="0; 0.8; 1" attributeName="fill" repeatCount="1"/>
	</path>
	<path d="M5527 1240 c-108 -17 -222 -49 -309 -85 -86 -36 -238 -130 -245 -150 -6 -19 153 -106 255 -141 272 -93 616 -83 1047 31 127 33 258 75 269 86 17 16 -17 40 -143 103 -231 116 -391 155 -646 161 -93 2 -196 0 -228 -5z">
		<animate dur="3.1s" values="transparent; transparent; #000" keyTimes="0; 0.8; 1" attributeName="fill" repeatCount="1"/>
	</path>
	<path d="M2355 1124 c-200 -22 -433 -85 -595 -160 -103 -49 -240 -130 -240 -144 0 -9 61 -30 155 -54 460 -116 935 -87 1260 77 93 47 186 108 182 121 -6 20 -96 74 -159 95 -146 48 -452 81 -603 65z">
		<animate dur="3.2s" values="transparent; transparent; #000" keyTimes="0; 0.8; 1" attributeName="fill" repeatCount="1"/>
	</path>
	<path d="M4530 825 c-161 -28 -307 -64 -442 -109 -110 -37 -118 -37 -223 7 -103 43 -253 77 -393 89 -340 30 -681 -52 -934 -223 -60 -41 -160 -126 -166 -141 -6 -13 115 -65 202 -88 118 -30 334 -28 476 4 147 34 324 99 542 200 182 83 247 102 263 76 10 -15 -5 -30 -160 -164 -183 -158 -352 -313 -377 -348 l-20 -28 24 -20 c12 -11 42 -29 66 -41 64 -32 58 -36 246 216 102 138 223 265 285 298 l51 28 44 -20 c80 -35 163 -128 235 -260 48 -91 109 -177 153 -218 51 -46 116 -83 148 -83 22 0 90 64 90 84 0 7 -14 20 -31 30 -47 28 -154 132 -237 231 -42 49 -118 133 -169 186 l-93 95 41 23 c59 33 115 25 278 -43 172 -72 323 -120 486 -154 119 -25 149 -27 360 -27 186 0 245 3 310 18 82 18 194 54 208 67 10 9 -78 89 -153 140 -126 85 -262 140 -436 175 -107 22 -146 25 -330 24 -172 0 -233 -5 -344 -24z">
		<animate dur="3.3s" values="transparent; transparent; #000" keyTimes="0; 0.8; 1" attributeName="fill" repeatCount="1"/>
	</path>
	</g>
</svg>